<?xml version="1.0" encoding="UTF-8" standalone="no"?>
<svg
   height="1080"
   viewBox="0 0 1080 1080"
   width="1080"
   version="1.1"
   id="svg8"
   sodipodi:docname="piped-logo(2).svg"
   inkscape:version="1.4 (e7c3feb1, 2024-10-09)"
   xmlns:inkscape="http://www.inkscape.org/namespaces/inkscape"
   xmlns:sodipodi="http://sodipodi.sourceforge.net/DTD/sodipodi-0.dtd"
   xmlns:xlink="http://www.w3.org/1999/xlink"
   xmlns="http://www.w3.org/2000/svg"
   xmlns:svg="http://www.w3.org/2000/svg">
  <sodipodi:namedview
     id="namedview1"
     pagecolor="#ffffff"
     bordercolor="#000000"
     borderopacity="0.25"
     inkscape:showpageshadow="2"
     inkscape:pageopacity="0.0"
     inkscape:pagecheckerboard="0"
     inkscape:deskcolor="#d1d1d1"
     inkscape:zoom="0.15174403"
     inkscape:cx="405.28776"
     inkscape:cy="645.8244"
     inkscape:window-width="1104"
     inkscape:window-height="583"
     inkscape:window-x="0"
     inkscape:window-y="0"
     inkscape:window-maximized="0"
     inkscape:current-layer="svg8" />
  <defs
     id="defs8" />
  <linearGradient
     id="a">
    <stop
       offset=".16"
       stop-color="#8b1010"
       id="stop1" />
    <stop
       offset="1"
       stop-color="#f84330"
       id="stop2" />
  </linearGradient>
  <linearGradient
     id="b"
     gradientUnits="userSpaceOnUse"
     x1="138.28"
     x2="522.49"
     xlink:href="#a"
     y1="555.665"
     y2="480.982" />
  <linearGradient
     id="c">
    <stop
       offset=".174"
       stop-color="#493b32"
       id="stop3" />
    <stop
       offset=".61"
       stop-color="#dbccc4"
       id="stop4" />
  </linearGradient>
  <linearGradient
     id="d"
     gradientUnits="userSpaceOnUse"
     x1="353.405"
     x2="321.475"
     xlink:href="#c"
     y1="835.89"
     y2="986.11" />
  <linearGradient
     id="e"
     gradientUnits="userSpaceOnUse"
     x1="300.212"
     x2="861.409"
     xlink:href="#a"
     y1="432.365"
     y2="323.279" />
  <linearGradient
     id="f"
     gradientUnits="userSpaceOnUse"
     x1="553.252"
     x2="504.217"
     xlink:href="#c"
     y1="62.95"
     y2="372.542" />
  <linearGradient
     id="g"
     gradientUnits="userSpaceOnUse"
     x1="557.276"
     x2="503.26"
     xlink:href="#c"
     y1="360.48"
     y2="701.52" />
  <path
     d="m308.43 156.83s7.31-5.48 20.3-12.73c7.3-3.14 16.4-6.37 26.78-9.27 10.92-2.28 23.06-3.99 35.59-4.91 12.81-.07 25.78.74 37.97 2.35 12.13 2.47 23.31 5.59 32.73 8.91 18.15 8.52 29.59 15.65 29.59 15.65v32.22 36.98 47.97 56.75 30.99 32.36 33.46 34.28 34.83 35.11 35.1 34.83 34.29 33.45 32.36 30.99 56.75 47.97 36.98 32.23s-11.44 0-28.59 0c-8.58 0-18.58 0-29.3 0s-22.16 0-33.59 0c-11.44 0-22.87 0-33.59 0s-20.73 0-29.3 0c-17.16 0-28.59 0-28.59 0s0-11.72 0-32.23c0-10.25 0-22.7 0-36.98s0-30.39 0-47.97c0-17.57 0-36.61 0-56.75 0-10.07 0-20.41 0-30.99 0-10.57 0-21.37 0-32.36 0-10.98 0-22.15 0-33.45 0-11.31 0-22.75 0-34.29 0-11.53 0-23.16 0-34.83s0-23.39 0-35.1c0-11.72 0-23.44 0-35.11s0-23.3 0-34.83 0-22.98 0-34.28c0-11.31 0-22.48 0-33.46 0-10.99 0-21.79 0-32.36s0-20.92 0-30.99c0-20.14 0-39.18 0-56.75 0-17.58 0-33.69 0-47.97s0-26.73 0-36.98c0-20.51 0-32.22 0-32.22z"
     fill="url(#b)"
     id="path4" />
  <path
     d="m400 948c-50.88 0-92-16.54-92-37s41.12-37 92-37 92 16.54 92 37-41.12 37-92 37z"
     fill="url(#d)"
     id="path5" />
  <path
     d="m550.11 292.48s0-9.64-.16-22.25c-.14-5.67-.33-11.9-.55-18.27-.22-6.23-.43-12.92-.6-19.85-.09-7.4-.08-15.47.04-23.83.26-9.3.65-18.99 1.12-28.18 1.38-21.19 2.68-37.67 2.68-37.67s14.59-1.21 39.24-1.44c5.94.38 12.43.98 19.38 1.85s14.36 2.01 22.15 3.46c7.51 1.94 15.32 4.3 23.37 7.09 8.04 2.79 16.32 6.02 24.75 9.69 7.97 4.32 16.01 9.16 24.06 14.51 8.04 5.35 16.08 11.21 24.06 17.58 7.5 6.87 14.87 14.25 22.05 22.13 6.82 8.18 13.42 16.83 19.73 25.92 5.92 9.37 11.52 19.14 16.76 29.28 4.8 10.36 9.22 21.04 13.21 31.99 3.52 11.11 6.6 22.44 9.2 33.92 2.11 11.57 3.73 23.25 4.85 34.96.6 11.72.69 23.42.27 35.04-.95 11.55-2.41 22.97-4.38 34.18-2.49 11.08-5.48 21.91-8.94 32.43-3.98 10.31-8.42 20.28-13.28 29.86-5.36 9.31-11.11 18.21-17.21 26.64-6.57 8.13-13.46 15.79-20.6 22.94-7.79 6.68-15.77 12.85-23.88 18.51-8.1 5.66-16.32 10.81-24.58 15.45-8.95 4.01-17.84 7.57-26.56 10.69-8.74 3.12-17.31 5.8-25.64 8.06-8.79 1.77-17.22 3.22-25.17 4.38-7.96 1.17-15.45 2.05-22.36 2.68-14.55.41-26.2.46-34.21.41s-12.38-.2-12.38-.2.32-9.63.73-23.13c.17-6.44.35-13.81.5-21.61.11-7.83.17-16.33.17-25.12-.08-9.21-.24-18.99-.48-28.78-.34-10.52-.76-21.1-1.2-30.82-1.17-21.47-2.17-37.48-2.17-37.48s6.94.4 18.59.49c5.58-.22 12.15-.74 19.38-1.64 6.91-1.22 14.33-2.95 21.95-5.26 7.13-2.71 14.29-6.08 21.23-10.09 3.23-2.16 6.37-4.49 9.4-6.97 2.84-2.58 5.57-5.32 8.14-8.19 2.37-2.96 4.58-6.05 6.6-9.26 1.82-3.28 3.44-6.67 4.86-10.15 1.2-3.52 2.18-7.13 2.94-10.78.54-3.69.85-7.41.93-11.15-.14-3.75-.52-7.5-1.12-11.23-.83-3.71-1.88-7.39-3.14-11-1.49-3.58-3.18-7.09-5.07-10.51-2.1-3.36-4.38-6.62-6.83-9.75-2.66-3.07-5.46-6-8.39-8.8-3.12-2.71-6.35-5.27-9.67-7.68-7.14-4.54-14.52-8.46-21.85-11.72-7.86-2.91-15.5-5.24-22.64-7.01-7.47-1.49-14.25-2.54-20.02-3.24-12.06-.89-19.26-1.08-19.26-1.08z"
     fill="url(#e)"
     id="path6" />
  <path
     d="m556.37 294c-22.47 0-40.64-34.09-40.64-76.25 0-42.17 18.17-76.26 40.64-76.26s40.64 34.09 40.64 76.26c0 42.16-18.17 76.25-40.64 76.25z"
     fill="url(#f)"
     id="path7" />
  <path
     d="m557.9 615c-22.47 0-40.64-37.55-40.64-84s18.17-84 40.64-84c22.48 0 40.64 37.55 40.64 84s-18.16 84-40.64 84z"
     fill="url(#g)"
     id="path8" />
</svg>
