<?xml version="1.0" encoding="UTF-8" standalone="no"?>
<!-- Created with Inkscape (http://www.inkscape.org/) -->

<svg
   width="127.79517mm"
   height="158.68559mm"
   viewBox="0 0 127.79517 158.68559"
   version="1.1"
   id="svg5"
   inkscape:version="1.1.2 (b8e25be833, 2022-02-05)"
   sodipodi:docname="Surfshark (Icon).svg"
   xmlns:inkscape="http://www.inkscape.org/namespaces/inkscape"
   xmlns:sodipodi="http://sodipodi.sourceforge.net/DTD/sodipodi-0.dtd"
   xmlns="http://www.w3.org/2000/svg"
   xmlns:svg="http://www.w3.org/2000/svg">
  <sodipodi:namedview
     id="namedview7"
     pagecolor="#ffffff"
     bordercolor="#666666"
     borderopacity="1.0"
     inkscape:pageshadow="2"
     inkscape:pageopacity="0.0"
     inkscape:pagecheckerboard="0"
     inkscape:document-units="mm"
     showgrid="false"
     inkscape:zoom="0.64052329"
     inkscape:cx="810.27499"
     inkscape:cy="115.53054"
     inkscape:window-width="1920"
     inkscape:window-height="1017"
     inkscape:window-x="-8"
     inkscape:window-y="-8"
     inkscape:window-maximized="1"
     inkscape:current-layer="g866" />
  <defs
     id="defs2" />
  <g
     inkscape:label="Layer 1"
     inkscape:groupmode="layer"
     id="layer1"
     transform="translate(19.814728,-55.657626)">
    <g
       style="fill:none"
       id="g866"
       transform="matrix(2.900249,0,0,2.900249,-21.871666,55.657626)">
      <path
         fill-rule="evenodd"
         clip-rule="evenodd"
         d="M 34.375463,0.00481897 C 34.312457,0.00322228 34.249279,0.00162112 34.186102,0 H 21.542482 C 13.265866,0.44651619 9.7867571,5.2549858 8.8533461,7.8158151 5.2263467,18.687672 2.9694415,32.76923 1.3402501,42.934117 c -0.031778,0.198312 -0.063315,0.395075 -0.094612,0.590289 l -0.52931674,4.831283 c -0.0313995,0.762779 0.0398673,1.588737 0.24540126,2.390766 1.01660408,2.947486 4.08185608,5.430523 10.83492738,2.956782 l 7.23e-4,0.0041 C 18.176508,50.925282 25.711862,47.468243 33.504403,43.589962 37.940782,41.024467 44.439472,35.126567 44.772747,27.676769 44.712667,22.151221 44.527611,16.35821 44.152333,10.720474 l -0.0022,0.0043 -1.73e-4,-0.03897 C 44.11915,10.22273 44.08696,9.6868911 44.05356,9.1290858 43.989138,8.0578526 43.919935,6.9055578 43.845568,6.0319331 43.735394,5.4262712 43.594407,4.8787431 43.420367,4.3840466 42.337912,1.9688702 40.217415,0.80423422 37.980548,0.24730003 36.96041,0.07040934 35.707185,0.03861273 34.375463,0.00481897 Z M 33.892937,11.24903 c 0,-0.624908 -0.506626,-1.1315 -1.131517,-1.1315 -7.186586,0 -13.012357,5.825822 -13.012357,13.012374 v 4.355299 c 0,3.862788 -3.131442,6.994299 -6.99423,6.994299 -0.64381,0 -1.165705,0.521947 -1.165705,1.165602 v 3.560327 c 0,0.62489 0.506591,1.131517 1.131499,1.131517 7.186466,0 13.012409,-5.825771 13.012409,-13.012358 v -4.355298 c 0,-3.862788 3.131339,-6.994247 6.994127,-6.994247 0.643827,0 1.165774,-0.521913 1.165774,-1.165705 z"
         fill="#178a9e"
         id="path844"
         style="stroke-width:1.72146" />
      <path
         d="m 32.761248,10.117375 c 0.624891,0 1.131517,0.506592 1.131517,1.1315 v 3.56031 c 0,0.643792 -0.521947,1.165705 -1.165774,1.165705 v 0 c -3.862788,0 -6.994127,3.131442 -6.994127,6.99423 v 4.621608 c 0,7.186587 -5.825771,13.012358 -13.012375,13.012358 v 0 c -0.624907,0 -1.131499,-0.506627 -1.131499,-1.131517 v -3.560327 c 0,-0.643827 0.521895,-1.165602 1.165705,-1.165602 v 0 c 3.862788,0 6.994196,-3.131511 6.994196,-6.994299 v -4.621609 c 0,-7.186534 5.825771,-13.012357 13.012357,-13.012357 z"
         fill="#ffffff"
         id="path846"
         style="stroke-width:1.72146" />
    </g>
  </g>
</svg>
