<svg enable-background="new 0 0 361 361" height="361" viewBox="0 0 361 361" width="361" xmlns="http://www.w3.org/2000/svg" xmlns:xlink="http://www.w3.org/1999/xlink"><linearGradient id="a" gradientUnits="userSpaceOnUse" x1="180" x2="180" y1="358.6047" y2="7.7586"><stop offset="0" stop-color="#fa233b"/><stop offset="1" stop-color="#fb5c74"/></linearGradient><g clip-rule="evenodd" fill-rule="evenodd"><path d="m360 112.61c0-4.3 0-8.6-.02-12.9-.02-3.62-.06-7.24-.16-10.86-.21-7.89-.68-15.84-2.08-23.64-1.42-7.92-3.75-15.29-7.41-22.49-3.6-7.07-8.3-13.53-13.91-19.14s-12.08-10.31-19.15-13.91c-7.19-3.66-14.56-5.98-22.47-7.41-7.8-1.4-15.76-1.87-23.65-2.08-3.62-.1-7.24-.14-10.86-.16-4.3-.02-8.6-.02-12.9-.02h-134.78c-4.3 0-8.6 0-12.9.02-3.62.02-7.24.06-10.86.16-7.89.22-15.85.68-23.65 2.09-7.92 1.42-15.28 3.75-22.47 7.41-7.07 3.6-13.54 8.3-19.15 13.91s-10.31 12.07-13.91 19.14c-3.66 7.2-5.99 14.57-7.41 22.49-1.4 7.8-1.87 15.76-2.08 23.64-.1 3.62-.14 7.24-.16 10.86-.02 4.29-.02 8.59-.02 12.89v134.77c0 4.3 0 8.6.02 12.9.02 3.62.06 7.24.16 10.86.21 7.89.68 15.84 2.08 23.64 1.42 7.92 3.75 15.29 7.41 22.49 3.6 7.07 8.3 13.53 13.91 19.14s12.08 10.31 19.15 13.91c7.19 3.66 14.56 5.98 22.47 7.41 7.8 1.4 15.76 1.87 23.65 2.08 3.62.1 7.24.14 10.86.16 4.3.03 8.6.02 12.9.02h134.77c4.3 0 8.6 0 12.9-.02 3.62-.02 7.24-.06 10.86-.16 7.89-.21 15.85-.68 23.65-2.08 7.92-1.42 15.28-3.75 22.47-7.41 7.07-3.6 13.54-8.3 19.15-13.91s10.31-12.07 13.91-19.14c3.66-7.2 5.99-14.57 7.41-22.49 1.4-7.8 1.87-15.76 2.08-23.64.1-3.62.14-7.24.16-10.86.03-4.3.02-8.6.02-12.9v-134.77z" fill="url(#a)"/><path d="m254.5 55c-.87.08-8.6 1.45-9.53 1.64l-107 21.59-.04.01c-2.79.59-4.98 1.58-6.67 3-2.04 1.71-3.17 4.13-3.6 6.95-.09.6-.24 1.82-.24 3.62v133.92c0 3.13-.25 6.17-2.37 8.76s-4.74 3.37-7.81 3.99c-2.33.47-4.66.94-6.99 1.41-8.84 1.78-14.59 2.99-19.8 5.01-4.98 1.93-8.71 4.39-11.68 7.51-5.89 6.17-8.28 14.54-7.46 22.38.7 6.69 3.71 13.09 8.88 17.82 3.49 3.2 7.85 5.63 12.99 6.66 5.33 1.07 11.01.7 19.31-.98 4.42-.89 8.56-2.28 12.5-4.61 3.9-2.3 7.24-5.37 9.85-9.11 2.62-3.75 4.31-7.92 5.24-12.35.96-4.57 1.19-8.7 1.19-13.26v-116.15c0-6.22 1.76-7.86 6.78-9.08 0 0 88.94-17.94 93.09-18.75 5.79-1.11 8.52.54 8.52 6.61v79.29c0 3.14-.03 6.32-2.17 8.92-2.12 2.59-4.74 3.37-7.81 3.99-2.33.47-4.66.94-6.99 1.41-8.84 1.78-14.59 2.99-19.8 5.01-4.98 1.93-8.71 4.39-11.68 7.51-5.89 6.17-8.49 14.54-7.67 22.38.7 6.69 3.92 13.09 9.09 17.82 3.49 3.2 7.85 5.56 12.99 6.6 5.33 1.07 11.01.69 19.31-.98 4.42-.89 8.56-2.22 12.5-4.55 3.9-2.3 7.24-5.37 9.85-9.11 2.62-3.75 4.31-7.92 5.24-12.35.96-4.57 1-8.7 1-13.26v-169.81c.02-6.16-3.23-9.96-9.02-9.46z" fill="#fff"/></g></svg>