<svg height="158.68559mm" viewBox="0 0 127.79517 158.68559" width="127.79517mm" xmlns="http://www.w3.org/2000/svg"><g fill="none" stroke-width="1.72146" transform="matrix(2.900249 0 0 2.900249 -2.056938 0)"><path clip-rule="evenodd" d="m34.375463.00481897c-.063006-.00159669-.126184-.00319785-.189361-.00481897h-12.64362c-8.276616.44651619-11.7557249 5.2549858-12.6891359 7.8158151-3.6269994 10.8718569-5.8839046 24.9534149-7.513096 35.1183019-.031778.198312-.063315.395075-.094612.590289l-.52931674 4.831283c-.0313995.762779.0398673 1.588737.24540126 2.390766 1.01660408 2.947486 4.08185608 5.430523 10.83492738 2.956782l.000723.0041c6.379135-2.782055 13.914489-6.239094 21.70703-10.117375 4.436379-2.565495 10.935069-8.463395 11.268344-15.913193-.06008-5.525548-.245136-11.318559-.620414-16.956295l-.0022.0043-.000173-.03897c-.03081-.463074-.063-.9989129-.0964-1.5567182-.064422-1.0712332-.133625-2.223528-.207992-3.0971527-.110174-.6056619-.251161-1.15319-.425201-1.6478865-1.082455-2.4151764-3.202952-3.57981238-5.439819-4.13674657-1.020138-.17689069-2.273363-.2086873-3.605085-.24248106zm-.482526 11.24421103c0-.624908-.506626-1.1315-1.131517-1.1315-7.186586 0-13.012357 5.825822-13.012357 13.012374v4.355299c0 3.862788-3.131442 6.994299-6.99423 6.994299-.64381 0-1.165705.521947-1.165705 1.165602v3.560327c0 .62489.506591 1.131517 1.131499 1.131517 7.186466 0 13.012409-5.825771 13.012409-13.012358v-4.355298c0-3.862788 3.131339-6.994247 6.994127-6.994247.643827 0 1.165774-.521913 1.165774-1.165705z" fill="#178a9e" fill-rule="evenodd"/><path d="m32.761248 10.117375c.624891 0 1.131517.506592 1.131517 1.1315v3.56031c0 .643792-.521947 1.165705-1.165774 1.165705-3.862788 0-6.994127 3.131442-6.994127 6.99423v4.621608c0 7.186587-5.825771 13.012358-13.012375 13.012358-.624907 0-1.131499-.506627-1.131499-1.131517v-3.560327c0-.643827.521895-1.165602 1.165705-1.165602 3.862788 0 6.994196-3.131511 6.994196-6.994299v-4.621609c0-7.186534 5.825771-13.012357 13.012357-13.012357z" fill="#fff"/></g></svg>